<svg width="24" height="24" viewBox="0 0 24 24" fill="none" xmlns="http://www.w3.org/2000/svg">
<g clip-path="url(#clip0)">
<path d="M23.9759 10.1007C24.3822 14.564 19.5722 19.6814 13.0804 20.896C6.56752 22.1185 1.6748 16.9984 2.27742 10.1007C2.87772 3.18777 7.68856 -1.00095 13.1727 0.206625C18.6778 1.43645 23.5714 5.62181 23.9759 10.1007Z" fill="#64D94E"/>
<path d="M21.1392 11.0963C21.687 17.3179 16.9497 22.4243 10.6058 21.8791C4.27137 21.3411 -0.429612 16.2356 0.0311449 11.0963C0.490171 5.94136 5.22864 1.74228 10.5645 1.18969C15.8912 0.659362 20.5931 4.85935 21.1392 11.0963Z" fill="#4ABAF9"/>
<path d="M21.3951 13.5966C21.3951 19.2774 17.1737 23.8823 11.9667 23.8823C6.75935 23.8823 2.53795 19.2774 2.53795 13.5966C2.53795 7.91582 6.75907 3.31088 11.9667 3.31088C17.1737 3.31088 21.3951 7.91582 21.3951 13.5966Z" fill="#FF0081"/>
<path d="M21.2026 11.6145C21.6905 17.2618 17.473 21.8971 11.8256 21.4023C6.18652 20.9141 2.0017 16.2796 2.4116 11.6145C2.82038 6.9355 7.03875 3.12412 11.7889 2.62235C16.531 2.14076 20.7164 5.95334 21.2026 11.6145Z" fill="#1F1F1F"/>
<path d="M12.3566 16.8892C11.0778 16.8892 9.79937 16.4463 9.09958 15.7605L8.81702 15.4838L9.62118 14.0056L10.0641 14.4036C10.4804 14.7779 11.3382 15.215 12.3846 15.215C13.1792 15.215 13.5745 15.0479 13.766 14.9077C13.9681 14.7599 14.0584 14.5645 14.0584 14.2747C14.0584 13.7163 13.5226 13.5523 12.3004 13.3116C11.6121 13.1759 10.9002 13.0357 10.3187 12.6892C9.58341 12.2515 9.21088 11.5642 9.21088 10.6465C9.21088 9.89091 9.52286 9.21611 10.0897 8.74643C10.6652 8.26943 11.4879 8.01737 12.4688 8.01737C13.5166 8.01737 14.6154 8.35447 15.2682 8.87596L15.6084 9.14784L14.8051 10.6245L14.3698 10.2899C13.8678 9.90402 13.1879 9.69158 12.4546 9.69158C11.8855 9.69158 11.4426 9.801 11.1739 10.0079C10.9752 10.161 10.8786 10.3649 10.8786 10.6315C10.8786 11.2387 11.4319 11.413 12.694 11.6666C13.3707 11.8025 14.0705 11.9431 14.6388 12.2792C15.3602 12.7059 15.7261 13.3722 15.7261 14.2601C15.7261 15.0507 15.3905 15.7416 14.7809 16.2058C14.1944 16.653 13.356 16.8892 12.3566 16.8892Z" fill="white"/>
</g>
<defs>
<clipPath id="clip0">
<path d="M0 0H24V24H0V0Z" fill="white"/>
</clipPath>
</defs>
</svg>
